<svg xmlns="http://www.w3.org/2000/svg" width="1024" height="1024" viewBox="0 0 1024 1024" fill="#0066cc">
    <g>
        <path d="M751.5,500.6h13.8c0,0,48.2-63.6,136.7-63.6v-10.3c0,0-78.3,0.9-136.7,56.8c0,0,4.3-65.4,61.5-112.7L822,363
            C822,363,751.5,421.4,751.5,500.6z"/>
        <path d="M181.5,102.9c-5-1.8-10-3.3-15-4.4c-27.7-6.2-55.1-1.2-75.1,16.2c-21.9,19.2-30.1,49.3-25,80.6c0.8,5,2,10.1,3.4,15.1
            c13.1,51.8,40.5,102,81.3,148.4C229,447.3,335.3,490,426.7,478.3c14.7-85.1-14.7-186.3-86.4-268.2
            C294.4,157.7,238.5,121.4,181.5,102.9z"/>
        <path d="M640.9,242.4c0.1-3.3,0-6.6-0.2-9.7c-1.5-17.5-9.2-32.1-22.6-39.1c-14.7-7.8-32.9-4.9-49.5,6c-2.7,1.7-5.3,3.7-7.8,5.8
            C534,226,511,254.4,492.4,289.7c-35.4,67.1-40.1,139.2-17,188.8c50.2-13,101.4-55.5,134.2-117.5
            C630.6,321.3,640.8,279.9,640.9,242.4z"/>
        <path d="M734.6,435.6c-26.2,0-50.5,7.9-70.8,21.3c-5.9,3.9-11.4,8.2-16.5,13c-9.6,8.9-17.8,19.3-24.3,30.7
            c-8.3,14.7-13.8,31.2-15.8,48.8c-0.5,4.7-0.8,9.4-0.8,14.2c0,14.9,2.5,29.2,7.2,42.4c4.9,13.8,12,26.6,21,37.8
            c13.2,16.4,30.3,29.5,50,37.8c9.5,4,19.5,6.9,30,8.5c6.5,1,13.1,1.5,19.9,1.5c16.8,0,32.9-3.2,47.6-9.1c1.2-0.5,2.3-1,3.5-1.4
            c45.3-19.7,77-64.9,77-117.5C862.7,492.9,805.3,435.6,734.6,435.6z"/>
        <circle cx="831.1" cy="365.1" r="32.2"/>
        <circle cx="920.6" cy="424" r="37.6"/>
        <g>
            <path d="M193.7,873.1c3.4-11,0.2-35.1-10.4-34.6c-12.9,2.2-45.7,22.8-57.4,31.6c-24.6,18.7-48.1,35.1-58.6,58
                c9.8-9.8,21.7-18.5,35.4-25.3C117.7,895.3,178.8,874.8,193.7,873.1z"/>
        </g>
        <path d="M578.7,555.6c-14.7-5.1-29.9-9.1-45.5-12c-9.8,13.6-17.5,28.8-22.6,45.2c-3.1,9.8-5.3,20.1-6.4,30.7
            c-7.1,64.3,25,123.9,77.1,155c11.2,6.7,25.8,14.9,38.7,18.8c19.1-14.5,40.5-41.5,56.5-75C673.2,715.2,559.4,685.8,578.7,555.6z"/>
        <path d="M268.2,671.5c2.4-22.1,8-43,16.3-62.4c-33,27.6-60.2,62.1-79.1,101.5c-17.1,35.6-27.5,75.1-29.5,116.9
            c-0.6,12.1-0.4,24.2,0.4,36c47.8,37.6,107.4,61.1,172.7,64.2c5.6,0.3,11.1,0.4,16.6,0.3c31.4-0.2,61.7-5.2,90.2-14.4
            C338.8,896.9,255.2,790.1,268.2,671.5z"/>
        <path d="M418.2,637.9c3.3-30,13.4-57.6,28.6-81.5c3.8-5.9,7.9-11.6,12.2-17.1c-20.2,1.3-39.9,4.6-58.9,9.7
            c-3.2,0.9-6.4,1.8-9.6,2.7c-28.1,29.3-47.2,67.7-51.9,111.2c-11.5,104.6,64,198.8,168.7,210.3c7.2,0.8,14.3,1.2,21.3,1.1
            c2.5,0,4.9,0,7.4-0.1c12.4-8.6,24.1-18.1,35.1-28.4c-5.6-1.1-11-2.4-16.4-3.9C467.2,816.7,407.9,731.5,418.2,637.9z"/>
    </g>
</svg>
