<?xml version="1.0" encoding="utf-8"?>
<!-- Generator: Adobe Illustrator 15.0.0, SVG Export Plug-In . SVG Version: 6.00 Build 0)  -->
<!DOCTYPE svg PUBLIC "-//W3C//DTD SVG 1.1//EN" "http://www.w3.org/Graphics/SVG/1.1/DTD/svg11.dtd">
<svg version="1.1" id="bee" xmlns="http://www.w3.org/2000/svg" xmlns:xlink="http://www.w3.org/1999/xlink" x="0px" y="0px"
    width="144px" height="144px" viewBox="0 0 144 144" enable-background="new 0 0 144 144" xml:space="preserve">
    <path d="M134.252,35.36"/>
    <g>
        <g>
            <path d="M105.064,82.846c3.684,10.072,1.057,20.584-6.072,22.896c-5.596,1.816-15.729-3.502-19.412-13.572
                c-3.686-10.07-0.967-20.32,6.07-22.897C92.688,66.699,101.379,72.777,105.064,82.846z"/>
        </g>
        <g>
            <path d="M54.198,75.463c0,0,9.689-28.974-7.053-47.343c0,0-20.666-19.396-26.317,5.155C20.829,33.275,15.402,65.017,54.198,75.463
                z"/>
        </g>
        <g>
            <path d="M61.554,83.297l9.334,1.666c0,0,1.666,15.668,9.335,22.668l-7.669,6.666C72.554,114.297,59.499,98.088,61.554,83.297z"/>
        </g>
        <g>
            <path d="M51.888,84.631H40.554c0,0,0.668,50.664,23.334,35.332C63.888,119.963,52.222,104.297,51.888,84.631z"/>
        </g>
        <g>
            <path d="M32.222,91.963c0,0,0.479,27.113,10.738,30.889c0,0-8.406,2.443-17.406-6.555l-18.667,3l15.667-7.666
                C22.554,111.631,23.769,96.23,32.222,91.963z"/>
        </g>
        <g>
            <path d="M97.564,70.684h2.738c0,0,9.584-12.667,27.213-12.667v-2.054c0,0-15.574,0.171-27.213,11.296
                c0,0,0.857-13.006,12.238-22.42l-0.941-1.541C111.6,43.299,97.564,54.937,97.564,70.684z"/>
        </g>
        <g>
            <ellipse transform="matrix(0.8135 -0.5815 0.5815 0.8135 -2.3948 75.0225)" cx="115.791" cy="41.246" rx="5.349" ry="3.937"/>
            <ellipse transform="matrix(0.9985 0.054 -0.054 0.9985 3.2049 -7.0385)" cx="131.768" cy="55.75" rx="5.35" ry="3.937"/>
	    </g>
    </g>
</svg>
